<?xml version="1.0"?><svg width="533.3333333333333" height="533.3333333333333" xmlns="http://www.w3.org/2000/svg">
 <title>circle</title>

 <g>
  <title>Layer 1</title>
  <g id="g828">
   <path fill-rule="evenodd" fill="#000000" fill-opacity="0.25" stroke-width="3.75" id="path1477" d="m493.666931,260.466187a233.686676,233.837479 0 1 0 -467.374016,0a233.686676,233.837479 0 1 0 467.374016,0l-233.686615,0l233.686615,0z"/>
   <path fill-rule="evenodd" stroke="#000000" fill="none" stroke-width="21" stroke-linejoin="round" id="path565" d="m482.915192,245.902847a235.933701,236.074997 0 1 0 -471.868112,0a235.933701,236.074997 0 1 0 471.868112,0l-235.933701,0l235.933701,0z"/>
   <path fill-rule="evenodd" fill="#ffffff" stroke-width="3.75" id="path566" d="m480.668091,245.903061a233.686676,233.837479 0 1 0 -467.374022,0a233.686676,233.837479 0 1 0 467.374022,0l-233.686646,0l233.686646,0z"/>
  </g>
 </g>
</svg>